<?xml version="1.0" encoding="UTF-8" standalone="no"?>
<!-- Created with Inkscape (http://www.inkscape.org/) -->

<svg
   width="512"
   height="512"
   viewBox="0 0 135.46666 135.46667"
   version="1.1"
   id="svg5"
   inkscape:version="1.1 (c4e8f9e, 2021-05-24)"
   sodipodi:docname="logo.svg"
   xmlns:inkscape="http://www.inkscape.org/namespaces/inkscape"
   xmlns:sodipodi="http://sodipodi.sourceforge.net/DTD/sodipodi-0.dtd"
   xmlns="http://www.w3.org/2000/svg"
   xmlns:svg="http://www.w3.org/2000/svg">
  <sodipodi:namedview
     id="namedview7"
     pagecolor="#505050"
     bordercolor="#eeeeee"
     borderopacity="1"
     inkscape:pageshadow="0"
     inkscape:pageopacity="0"
     inkscape:pagecheckerboard="0"
     inkscape:document-units="mm"
     showgrid="false"
     units="px"
     width="512px"
     inkscape:zoom="0.75277076"
     inkscape:cx="126.86465"
     inkscape:cy="349.37595"
     inkscape:window-width="1920"
     inkscape:window-height="1016"
     inkscape:window-x="0"
     inkscape:window-y="27"
     inkscape:window-maximized="1"
     inkscape:current-layer="layer2" />
  <defs
     id="defs2" />
  <g
     inkscape:groupmode="layer"
     id="layer2"
     inkscape:label="ufo">
    <path
       style="fill:#ff0000;stroke:#000000;stroke-width:0.264583px;stroke-linecap:butt;stroke-linejoin:miter;stroke-opacity:1;fill-opacity:1"
       d="M 53.979681,23.600502 52.63428,39.887277 81.492072,39.198961 88.103268,34.689808 80.761547,29.145837 Z"
       id="path15920" />
    <path
       style="fill:#00ff00;stroke:#000000;stroke-width:0.264583px;stroke-linecap:butt;stroke-linejoin:miter;stroke-opacity:1;fill-opacity:1"
       d="M 52.63428,39.887277 42.347741,49.775852 83.212528,46.723298 81.492072,39.198961"
       id="path15922" />
    <path
       style="fill:#0007ff;stroke:#000000;stroke-width:0.264583px;stroke-linecap:butt;stroke-linejoin:miter;stroke-opacity:1;fill-opacity:1"
       d="M 42.347741,49.775852 27.073988,59.700184 98.603454,55.777954 83.212528,46.723298"
       id="path15924" />
    <path
       style="fill:none;stroke:#000000;stroke-width:0.264583px;stroke-linecap:butt;stroke-linejoin:miter;stroke-opacity:1"
       d="m 48.970605,59.698062 v 0"
       id="path15930" />
    <path
       style="fill:#ffffff;stroke:#000000;stroke-width:0.264583px;stroke-linecap:butt;stroke-linejoin:miter;stroke-opacity:1;fill-opacity:1"
       d="m 48.970604,59.698061 -69.525084,50.822759 -3.571214,41.43519 212.366154,1.04148 -43.44348,-44.0423 -68.679962,-51.737693 -1.933652,0.173522"
       id="path16239" />
  </g>
  <g
     inkscape:label="text"
     inkscape:groupmode="layer"
     id="layer1">
    <g
       aria-label="rexos"
       id="text3200"
       style="font-size:50.8px;line-height:1.25;font-family:AlArabiya;-inkscape-font-specification:AlArabiya;letter-spacing:0px;word-spacing:0px;stroke-width:0.264583">
      <path
         d="m 22.986088,104.15301 q -2.088445,0.0282 -3.527778,0.42333 -1.439333,0.36689 -2.652889,1.32645 -1.185333,0.95955 -1.778,2.794 -0.564444,1.80622 -0.564444,4.51555 v 13.82889 h -4.261556 v -26.61356 h 3.894667 v 4.79778 q 1.834444,-2.96333 3.499555,-4.26155 1.693334,-1.298226 3.781778,-1.298226 0.395111,0 1.608667,0.141111 z"
         id="path13996"
         style="fill:#ff0000;fill-opacity:1" />
      <path
         d="M 49.627853,115.15967 H 29.985187 q 0.05644,2.00378 0.338667,3.27378 0.310444,1.27 1.072444,2.39889 2.201333,3.47133 6.434667,3.47133 5.136444,0 6.942666,-5.334 h 4.289778 q -0.818445,4.318 -3.838222,6.77334 -2.991556,2.45533 -7.563556,2.45533 -5.616222,0 -8.861777,-3.75356 -3.217334,-3.78177 -3.217334,-10.32933 0,-6.57578 3.302,-10.49866 3.330223,-3.951116 8.89,-3.951116 3.725333,0 6.575778,1.862666 2.878667,1.86267 4.205111,5.13645 1.072444,2.87866 1.072444,8.49488 z m -19.501555,-3.47133 h 14.901333 q 0.05645,-0.0847 0.05645,-0.28222 0,-3.302 -2.116667,-5.55978 -2.116667,-2.286 -5.249333,-2.286 -3.217334,0 -5.277556,2.22956 -2.060222,2.20133 -2.314222,5.89844 z"
         id="path13998"
         style="fill:#00ff00;fill-opacity:1" />
      <path
         d="m 66.617623,113.29701 9.200444,13.74422 h -4.938889 l -6.632222,-10.21645 -6.773333,10.21645 h -4.826 l 9.398,-13.54667 -8.918222,-13.06689 h 4.854222 l 6.378222,9.652 6.406444,-9.652 h 4.769556 z"
         id="path14000"
         style="fill:#00ff00;fill-opacity:1" />
      <path
         d="m 91.001525,99.665674 q 5.729111,0 8.89,3.809996 3.189115,3.78178 3.189115,10.668 0,6.54756 -3.217337,10.30111 -3.217333,3.75356 -8.805333,3.75356 -5.672667,0 -8.861778,-3.78178 -3.189111,-3.78178 -3.189111,-10.47044 0,-6.68867 3.189111,-10.47045 3.217333,-3.809996 8.805333,-3.809996 z m 5.616222,6.688666 q -2.003777,-2.794 -5.559777,-2.794 -3.556,0 -5.616223,2.794 -2.031999,2.794 -2.031999,7.59178 0,4.826 2.031999,7.59178 2.060223,2.76577 5.616223,2.76577 3.499555,0 5.531555,-2.73755 2.060222,-2.76578 2.060222,-7.45067 0,-4.99533 -2.032,-7.76111 z"
         id="path14002"
         style="fill:#00ff00;fill-opacity:1" />
      <path
         d="m 111.60374,119.11078 q 0.11289,0.87489 0.31044,1.55223 0.19756,0.64911 0.64911,1.38289 0.45156,0.73377 1.10067,1.18533 0.67733,0.45155 1.80622,0.762 1.12889,0.31044 2.62467,0.31044 2.76578,0 4.48733,-1.12889 1.72156,-1.15711 1.72156,-3.048 0,-1.43933 -0.95956,-2.286 -0.95955,-0.87488 -3.18911,-1.43933 l -3.92289,-0.93133 q -4.71311,-1.12889 -6.604,-2.85045 -1.86266,-1.72155 -1.86266,-4.826 0,-3.69711 2.794,-5.89844 2.794,-2.229556 7.42244,-2.229556 4.62845,0 7.112,2.116666 2.51178,2.11667 2.54,6.06778 h -4.45911 q -0.16933,-4.28978 -5.30578,-4.28978 -2.59644,0 -4.14866,1.10067 -1.524,1.10066 -1.524,2.93511 0,1.38289 1.15711,2.286 1.15711,0.90311 3.75355,1.524 l 4.064,0.93133 q 3.97934,0.98778 5.75734,2.73756 1.778,1.74977 1.778,4.71311 0,3.83822 -2.99156,6.12422 -2.96333,2.286 -7.98689,2.286 -5.22111,0 -7.84578,-2.22956 -2.62466,-2.22955 -2.76577,-6.858 z"
         id="path14004"
         style="fill:#0000ff;fill-opacity:1" />
    </g>
  </g>
</svg>
